<?xml version="1.0" encoding="UTF-8"?>
<svg id="Calque_1" data-name="Calque 1" xmlns="http://www.w3.org/2000/svg" viewBox="0 0 123.26 116.78">
  <path d="M123.81,57.94c0,8.12.04,16.35-3.14,23.37-3.24,7.16-7.53,14.75-13.36,20.09-5.7,5.23-14.19,7.24-21.69,10.09-7.13,2.71-14.71,4.99-22.87,4.99s-15.74-2.28-22.87-4.99c-7.5-2.85-12.87-8.26-18.57-13.48-5.83-5.35-13.44-9.44-16.68-16.6-3.18-7.02-5.16-15.34-5.16-23.46s3.74-15.64,6.92-22.66c3.24-7.16,7.55-13.73,13.39-19.08,5.7-5.23,12.82-8.42,20.31-11.27C47.21,2.22,54.59.29,62.75.29s15.23,2.74,22.36,5.45c7.5,2.85,15.88,4.19,21.58,9.42,5.83,5.35,8.5,13.27,11.75,20.43,3.18,7.02,5.37,14.24,5.37,22.35Z"/>
</svg>